<svg id="レイヤー_1" data-name="レイヤー 1" xmlns="http://www.w3.org/2000/svg" viewBox="0 0 266 266"><defs><style>.cls-1{fill:#636c72;}</style></defs><title>アートボード 1</title><path class="cls-1" d="M251.72-.45H14.28A14.73,14.73,0,0,0-.45,14.28V251.72a14.73,14.73,0,0,0,14.73,14.73H142.11V163.09H107.33V122.81h34.78V93.11c0-34.47,21.05-53.24,51.81-53.24A285.41,285.41,0,0,1,225,41.45v36H203.67c-16.72,0-20,7.95-20,19.61v25.72h39.89l-5.19,40.28H183.7V266.45h68a14.73,14.73,0,0,0,14.73-14.73V14.28A14.73,14.73,0,0,0,251.72-.45Z"/></svg>
