<?xml version="1.0" standalone="no"?>
<!DOCTYPE svg PUBLIC "-//W3C//DTD SVG 20010904//EN"
 "http://www.w3.org/TR/2001/REC-SVG-20010904/DTD/svg10.dtd">
<svg version="1.0" xmlns="http://www.w3.org/2000/svg"
 width="630.000000pt" height="630.000000pt" viewBox="0 0 630.000000 630.000000"
 preserveAspectRatio="xMidYMid meet">
<metadata>
Created by potrace 1.11, written by Peter Selinger 2001-2013
</metadata>
<g transform="translate(0.000000,630.000000) scale(0.100000,-0.100000)"
fill="#000000" stroke="none">
<path d="M1808 4660 c-507 -59 -881 -369 -1043 -866 -127 -387 -123 -930 11
-1315 120 -346 354 -611 652 -739 185 -79 319 -104 562 -104 334 0 566 68 785
231 352 262 535 702 535 1288 0 511 -139 905 -416 1179 -161 160 -348 256
-597 307 -117 23 -365 33 -489 19z m472 -219 c415 -96 674 -383 769 -856 58
-288 50 -679 -19 -948 -58 -227 -140 -377 -290 -528 -88 -88 -120 -113 -195
-151 -171 -88 -346 -128 -556 -128 -608 0 -979 352 -1075 1016 -21 149 -21
473 1 619 87 587 380 913 894 995 94 15 374 4 471 -19z"/>
<path d="M3254 4593 c8 -21 251 -675 541 -1453 290 -778 532 -1427 537 -1442
10 -28 11 -28 101 -28 l92 1 539 1447 c297 796 546 1462 553 1480 l13 32 -112
0 -113 0 -448 -1228 c-246 -675 -465 -1282 -486 -1347 l-39 -120 -21 75 c-47
163 -167 499 -550 1535 l-399 1080 -111 3 -110 3 13 -38z"/>
</g>
</svg>
